<?xml version="1.0" standalone="no"?>
<!DOCTYPE svg PUBLIC "-//W3C//DTD SVG 20010904//EN"
 "http://www.w3.org/TR/2001/REC-SVG-20010904/DTD/svg10.dtd">
<svg version="1.0" xmlns="http://www.w3.org/2000/svg"
 width="2481.000000pt" height="2481.000000pt" viewBox="0 0 2481.000000 2481.000000"
 preserveAspectRatio="xMidYMid meet">
<metadata>
Created by potrace 1.14, written by Peter Selinger 2001-2017
</metadata>
<g transform="translate(0.000000,2481.000000) scale(0.100000,-0.100000)"
fill="#000000" stroke="none">
<path d="M10107 21684 c-1 -1 -56 -4 -121 -8 -66 -4 -122 -8 -125 -10 -3 -2
-30 -7 -60 -10 -30 -4 -64 -9 -75 -11 -12 -2 -37 -7 -56 -9 -209 -29 -539
-133 -782 -245 -36 -17 -69 -31 -71 -31 -3 0 -63 -32 -134 -71 -617 -344
-1103 -865 -1388 -1489 -115 -253 -217 -580 -249 -805 -4 -23 -8 -50 -10 -61
-2 -11 -7 -44 -11 -74 -3 -30 -9 -68 -11 -85 -3 -16 -8 -193 -11 -392 l-5
-363 28 -1 c34 0 2901 0 2925 1 10 0 26 25 44 73 93 241 263 495 452 677 88
85 204 176 327 256 67 44 293 154 316 154 5 0 18 4 28 9 45 25 258 82 357 96
127 18 238 20 915 20 666 0 755 -2 835 -18 50 -9 104 -20 120 -23 57 -10 210
-57 283 -85 111 -44 311 -148 367 -191 6 -4 39 -29 75 -56 146 -107 304 -268
412 -417 84 -118 187 -306 230 -424 11 -31 24 -60 28 -65 6 -5 8236 -12 8454
-6 18 0 18 13 13 353 -3 193 -7 363 -10 377 -3 14 -8 54 -12 90 -3 36 -8 74
-10 85 -3 11 -7 36 -10 55 -3 19 -8 51 -11 71 -3 19 -21 96 -40 170 -19 74
-39 151 -44 172 -6 20 -33 99 -61 175 -228 616 -629 1137 -1175 1527 -162 116
-402 250 -594 332 -84 36 -378 142 -398 143 -4 0 -23 5 -42 10 -19 5 -46 11
-60 14 -14 3 -65 14 -115 25 -49 11 -110 22 -135 26 -25 3 -56 8 -70 10 -14 2
-50 6 -80 10 -30 3 -77 9 -105 12 -39 5 -10122 12 -10128 7z"/>
<path d="M11640 17923 c-232 -47 -409 -251 -425 -489 -3 -34 -7 -113 -10 -175
-3 -63 -7 -145 -10 -184 -2 -38 -7 -117 -10 -175 -3 -58 -8 -143 -10 -190 -3
-47 -8 -139 -11 -204 -3 -66 -7 -123 -9 -126 -3 -4 -26 -13 -52 -20 -61 -16
-305 -106 -357 -131 -22 -11 -43 -19 -48 -19 -14 0 -260 -122 -347 -172 -46
-26 -85 -48 -87 -48 -16 0 -319 -205 -430 -291 -95 -73 -296 -246 -302 -260
-1 -3 -64 25 -140 63 -75 39 -305 155 -511 259 -205 105 -376 188 -379 185 -2
-3 -13 -1 -24 5 -11 6 -59 12 -108 14 -195 9 -360 -73 -469 -230 -23 -33 -106
-175 -208 -355 -11 -19 -34 -58 -50 -86 -17 -27 -41 -70 -55 -95 -14 -24 -63
-109 -110 -189 -46 -80 -87 -152 -91 -160 -4 -8 -17 -31 -29 -50 -90 -148
-119 -303 -82 -442 26 -99 91 -211 159 -271 20 -17 181 -125 458 -306 81 -53
216 -141 301 -197 84 -56 161 -104 170 -107 21 -8 21 -6 -13 -182 -29 -150
-38 -206 -47 -300 -3 -27 -7 -60 -9 -72 -9 -56 -19 -264 -18 -413 0 -213 8
-336 35 -535 6 -44 12 -89 13 -101 7 -52 47 -247 55 -269 10 -27 52 2 -505
-361 -482 -314 -495 -325 -560 -460 -43 -87 -50 -124 -49 -249 1 -123 20 -179
117 -343 37 -63 67 -118 67 -123 0 -5 5 -9 10 -9 6 0 9 -3 8 -7 -1 -5 5 -19
13 -33 34 -53 109 -181 109 -185 0 -2 24 -44 52 -92 29 -48 64 -109 78 -134
116 -211 191 -328 242 -380 149 -150 370 -200 564 -128 51 19 162 75 712 356
244 124 286 142 300 131 9 -7 37 -32 62 -54 72 -66 168 -145 270 -222 52 -40
100 -76 105 -80 26 -21 219 -144 305 -195 217 -126 527 -265 771 -344 l109
-35 1 -51 c2 -69 5 -139 13 -277 4 -63 9 -153 11 -200 2 -47 7 -125 10 -175 3
-49 7 -133 10 -185 8 -172 16 -242 32 -289 55 -167 179 -293 344 -353 64 -23
66 -23 679 -26 406 -2 636 1 677 8 215 37 392 212 433 430 5 25 11 106 15 180
4 74 8 160 11 190 2 30 6 107 9 170 3 63 7 142 10 175 2 33 7 123 11 200 9
195 9 193 17 201 3 4 57 23 119 44 233 77 505 197 701 309 20 11 53 30 73 41
41 24 204 128 249 160 77 54 160 115 165 120 3 3 25 21 50 40 53 41 75 60 186
158 82 72 84 73 111 60 474 -242 966 -488 993 -496 188 -57 400 -5 535 132 53
54 84 98 163 236 39 69 136 236 167 290 189 324 336 589 350 629 25 76 33 179
19 260 -15 86 -33 135 -78 204 -60 95 -88 116 -523 398 -65 42 -200 130 -300
195 -100 66 -189 124 -198 129 -14 8 -15 17 -6 55 10 48 11 49 35 180 18 102
24 140 31 200 3 25 7 59 10 75 26 192 26 725 0 875 -2 14 -7 52 -10 85 -3 33
-8 69 -10 80 -3 11 -7 37 -10 57 -2 21 -9 57 -14 80 -5 24 -12 59 -15 78 -3
19 -10 53 -16 75 -5 22 -10 43 -10 47 0 6 126 98 135 98 2 0 30 18 62 39 32
22 177 117 323 212 374 243 391 254 431 291 88 80 137 173 166 308 9 45 2 175
-13 226 -21 73 -35 101 -145 291 -49 83 -97 167 -108 185 -142 248 -357 619
-373 642 -57 82 -165 161 -269 197 -86 30 -238 32 -324 4 -33 -10 -143 -61
-245 -113 -102 -52 -317 -161 -478 -243 -161 -82 -296 -149 -300 -149 -7 0
-35 23 -102 83 -265 238 -586 453 -905 607 -221 106 -294 136 -500 205 -123
42 -129 45 -131 72 -1 15 -4 84 -8 153 -4 69 -9 159 -11 200 -2 41 -7 125 -10
185 -3 61 -7 142 -9 180 -3 39 -7 128 -11 198 -4 71 -8 138 -11 150 -10 56
-14 72 -25 106 -51 156 -213 302 -379 342 -75 18 -1243 20 -1330 2z m875
-2767 c80 -7 92 -9 175 -20 47 -6 57 -8 150 -27 342 -68 701 -229 1015 -453
39 -28 75 -55 81 -61 6 -5 33 -28 60 -50 68 -55 250 -237 315 -315 30 -36 56
-67 59 -70 26 -23 230 -330 230 -345 0 -3 10 -22 23 -43 89 -145 233 -543 262
-722 3 -19 10 -57 15 -85 44 -238 47 -584 5 -850 -9 -58 -36 -190 -46 -230 -6
-22 -12 -47 -14 -55 -28 -134 -198 -536 -274 -648 -10 -15 -39 -61 -66 -102
-53 -82 -149 -212 -204 -275 -74 -84 -270 -273 -351 -338 -115 -92 -381 -267
-406 -267 -4 0 -15 -6 -23 -13 -19 -16 -217 -105 -316 -142 -60 -22 -207 -68
-255 -80 -58 -14 -213 -45 -250 -50 -25 -4 -56 -8 -70 -10 -118 -18 -388 -24
-540 -12 -143 11 -365 48 -465 77 -224 67 -399 135 -554 217 -97 51 -229 129
-241 143 -3 3 -34 25 -69 49 -165 113 -372 308 -509 478 -98 121 -151 194
-157 214 -4 11 -11 19 -16 19 -5 0 -9 5 -9 11 0 6 -13 29 -29 52 -91 133 -236
465 -287 657 -33 124 -57 241 -69 330 -3 25 -8 52 -10 60 -17 66 -24 424 -10
541 4 35 8 80 10 99 18 174 69 392 137 580 171 474 491 907 893 1210 44 33 85
64 91 69 20 16 258 158 309 184 257 129 580 227 870 261 191 23 360 27 540 12z"/>
<path d="M17600 16638 c0 -3 10 -19 23 -35 59 -71 127 -179 285 -448 93 -159
178 -306 189 -325 12 -19 60 -102 108 -185 49 -82 99 -168 112 -190 104 -174
217 -476 238 -640 4 -28 9 -52 10 -56 9 -14 19 -168 19 -289 0 -195 -7 -255
-59 -487 -27 -118 -141 -368 -228 -500 -44 -66 -51 -83 -38 -87 9 -2 1126 -4
2484 -4 l2467 1 0 1626 0 1626 -2805 0 c-1543 0 -2805 -3 -2805 -7z"/>
<path d="M4647 15725 c-1 -2 -42 -5 -92 -9 -49 -3 -101 -8 -115 -10 -14 -3
-45 -7 -70 -10 -25 -3 -72 -11 -105 -17 -33 -6 -73 -13 -88 -15 -93 -12 -474
-128 -597 -182 -240 -105 -518 -261 -665 -375 -5 -4 -28 -21 -50 -38 -63 -48
-101 -78 -147 -117 -62 -53 -325 -318 -378 -381 -257 -308 -475 -698 -595
-1066 -36 -112 -100 -362 -109 -425 -2 -19 -9 -60 -15 -90 -13 -71 -20 -132
-29 -250 -9 -122 -9 -10023 0 -10110 24 -223 98 -446 214 -646 16 -27 32 -50
36 -52 4 -2 8 -8 8 -14 0 -14 116 -161 177 -223 270 -279 637 -458 1028 -500
104 -12 312 -6 400 11 207 39 283 63 440 138 160 77 225 122 585 410 179 143
424 339 545 436 121 97 229 183 240 193 11 9 184 147 385 307 201 161 374 299
385 308 42 36 620 497 661 529 l44 33 4052 3 c2229 1 4071 6 4093 10 42 7 106
16 165 23 19 3 42 7 50 9 8 3 33 7 55 10 22 4 48 8 57 11 17 5 43 11 90 19 15
3 37 9 50 14 13 5 25 9 28 9 26 0 308 91 364 117 17 7 60 26 96 41 580 239
1132 720 1480 1289 63 104 200 364 200 380 0 4 9 25 19 48 59 131 126 338 169
522 33 141 36 158 57 315 3 25 8 59 10 75 14 97 18 352 19 1233 0 540 0 982 0
982 -1 0 -23 -35 -50 -77 -189 -306 -487 -576 -799 -723 -154 -72 -429 -160
-502 -160 -13 0 -24 -3 -24 -7 -1 -5 -2 -233 -4 -508 -2 -523 -4 -561 -39
-742 -40 -201 -149 -460 -273 -645 -322 -479 -849 -788 -1408 -824 -49 -3
-1899 -7 -4110 -8 -2211 -2 -4036 -6 -4055 -10 -28 -5 -91 -18 -155 -32 -31
-6 -176 -59 -224 -81 -118 -55 -265 -152 -384 -252 -12 -11 -110 -89 -217
-175 -107 -86 -211 -169 -230 -185 -19 -16 -154 -124 -300 -239 -146 -116
-269 -215 -275 -219 -5 -5 -71 -57 -145 -116 -74 -60 -142 -114 -151 -121 -9
-7 -162 -130 -340 -272 -178 -142 -329 -263 -336 -269 -7 -5 -18 -14 -25 -20
-35 -27 -164 -131 -168 -135 -3 -3 -25 -21 -50 -40 -25 -19 -47 -37 -50 -40
-32 -37 -186 -142 -222 -151 -93 -25 -220 29 -268 113 l-25 43 0 4935 c0 4395
3 5041 20 5092 2 7 6 29 9 48 9 57 63 242 96 324 172 435 499 785 925 991 177
86 291 121 558 172 17 3 347 8 732 10 385 2 700 5 701 6 1 1 4 76 7 167 3 91
8 176 11 190 3 14 7 41 10 60 22 135 73 321 115 414 12 25 21 48 21 51 0 15
98 199 178 335 47 80 86 148 88 151 3 5 -1782 9 -1789 4z"/>
<path d="M17999 11913 c59 -60 136 -144 170 -188 35 -44 68 -87 74 -95 31 -39
111 -179 151 -262 53 -112 89 -210 121 -338 23 -92 26 -110 42 -222 10 -69 9
-397 -1 -468 -40 -281 -137 -550 -295 -810 -28 -47 -51 -90 -51 -95 0 -6 23
-28 51 -50 28 -22 56 -45 63 -50 6 -6 292 -235 636 -510 344 -275 634 -507
645 -516 11 -9 94 -76 185 -148 91 -72 172 -137 180 -144 47 -43 627 -502 685
-543 98 -69 97 -68 230 -134 189 -93 368 -144 554 -157 320 -24 595 29 874
168 85 42 218 123 253 154 7 5 31 26 55 44 67 53 190 178 251 256 150 192 269
452 307 675 6 36 14 79 18 95 4 17 9 798 10 1738 l4 1707 -2661 0 -2660 0 109
-107z"/>
<path d="M5515 7874 c-114 -21 -123 -23 -193 -51 -439 -174 -668 -659 -530
-1118 72 -238 267 -458 493 -555 125 -54 214 -73 350 -74 154 -1 207 5 300 38
200 69 334 164 450 321 46 62 104 161 111 190 2 6 11 33 22 61 11 28 23 69 27
90 4 21 10 53 13 69 9 42 7 220 -1 278 -44 283 -242 549 -503 672 -32 15 -66
31 -75 35 -8 4 -55 18 -104 30 -107 27 -259 33 -360 14z"/>
<path d="M8368 7885 c-2 -1 -25 -5 -53 -8 -103 -11 -249 -59 -330 -110 -157
-97 -268 -212 -347 -357 -27 -51 -66 -145 -72 -175 -2 -11 -10 -42 -18 -70
-15 -56 -18 -283 -5 -355 51 -280 251 -535 517 -658 115 -53 211 -74 355 -78
141 -3 236 12 350 56 243 93 434 289 528 540 13 36 25 68 25 73 0 4 6 33 12
64 7 31 13 98 15 148 12 395 -238 754 -612 881 -54 18 -118 36 -143 39 -49 8
-216 15 -222 10z"/>
</g>
</svg>
